# xmcd
#
# Track frame offsets:
#	225
#	23953
#	44807
#	70112
#
# Disc length: 1198 seconds
#
# Revision: 3
# Processed by: cddbd v1.5.2PL0 Copyright (c) Steve Scherf et al.
# Submitted via: audiograbber 1.83.01
#
DISCID=3504ab04
DTITLE=Fair Play - Zauberspruch
DYEAR=1995
DGENRE=Deutsch Country
TTITLE0=Zauberspruch (Single)
TTITLE1=Herz mit Ellenbogen (Single)
TTITLE2=Bei Dir sein (Single)
TTITLE3=Ein Träumer wie ich (Single)
EXTD=Spezielle Fan 4 Track Maxi CD 
EXTT0=
EXTT1=
EXTT2=
EXTT3=
PLAYORDER=
